<svg width="20" height="21" viewBox="0 0 20 21" fill="none" xmlns="http://www.w3.org/2000/svg">
<path d="M11.9023 15.1836C11.668 15.1836 11.4922 15.123 11.375 15.002C11.2578 14.8848 11.1992 14.709 11.1992 14.4746V6.94531C11.1992 6.71094 11.2578 6.53516 11.375 6.41797C11.4922 6.30078 11.668 6.24219 11.9023 6.24219H13.1504C13.3848 6.24219 13.5605 6.29883 13.6777 6.41211C13.7949 6.52539 13.8535 6.70312 13.8535 6.94531V14.4746C13.8535 14.709 13.7949 14.8848 13.6777 15.002C13.5605 15.123 13.3848 15.1836 13.1504 15.1836H11.9023ZM16.2324 15.1836C16.002 15.1836 15.8262 15.123 15.7051 15.002C15.5879 14.8848 15.5293 14.709 15.5293 14.4746V6.94531C15.5293 6.71094 15.5879 6.53516 15.7051 6.41797C15.8262 6.30078 16.002 6.24219 16.2324 6.24219H17.4805C17.7109 6.24219 17.8848 6.29883 18.002 6.41211C18.123 6.52539 18.1836 6.70312 18.1836 6.94531V14.4746C18.1836 14.709 18.123 14.8848 18.002 15.002C17.8848 15.123 17.7109 15.1836 17.4805 15.1836H16.2324ZM2.57422 15.0137C2.37109 15.0137 2.19336 14.9355 2.04102 14.7793C1.88867 14.627 1.8125 14.4023 1.8125 14.1055V7.31445C1.8125 7.01758 1.88867 6.79297 2.04102 6.64062C2.19336 6.48438 2.37109 6.40625 2.57422 6.40625C2.67969 6.40625 2.78125 6.42383 2.87891 6.45898C2.97656 6.49414 3.07812 6.54102 3.18359 6.59961L8.84961 9.93359C9.0332 10.043 9.16602 10.1621 9.24805 10.291C9.33008 10.416 9.37109 10.5547 9.37109 10.707C9.37109 10.8594 9.32812 11 9.24219 11.1289C9.16016 11.2578 9.0293 11.377 8.84961 11.4863L3.18359 14.8145C3.07812 14.877 2.97656 14.9258 2.87891 14.9609C2.78125 14.9961 2.67969 15.0137 2.57422 15.0137Z" fill="black"/>
</svg>
