<svg width="266" height="231" viewBox="0 0 266 231" fill="none" xmlns="http://www.w3.org/2000/svg">
<path d="M260.065 26.0793C263.679 29.0758 264.179 34.4344 261.183 38.0481C258.186 41.6618 252.828 42.1622 249.214 39.1658C230.353 23.5265 210.664 17.631 191.468 19.3017C172.106 20.9869 152.348 30.4576 133.815 47.1832C99.9983 77.7018 71.3795 131.463 58.6606 200.116L88.2028 177.48C91.9291 174.625 97.2645 175.331 100.12 179.058C102.975 182.784 102.269 188.119 98.5422 190.974L52.106 226.554C48.3797 229.41 43.0443 228.703 40.1892 224.977L4.60928 178.541C1.75411 174.814 2.46035 169.479 6.18671 166.624C9.91301 163.769 15.2484 164.475 18.1036 168.201L41.6062 198.875C54.6426 126.707 84.8159 68.5042 122.425 34.5627C142.97 16.0215 166.067 4.44824 189.994 2.36578C214.087 0.268877 238.119 7.88214 260.065 26.0793Z" fill="black" stroke="white" stroke-width="4" stroke-linecap="round"/>
</svg>
