<svg width="294" height="138" viewBox="0 0 294 138" fill="none" xmlns="http://www.w3.org/2000/svg">
<path d="M3.71811 15.0159C1.38739 10.9409 2.80137 5.74808 6.87634 3.41736C10.9513 1.08663 16.1441 2.50062 18.4749 6.57558C51.2652 63.9052 139.21 99.3436 259.931 72.9067L227.621 54.2976C223.553 51.9546 222.155 46.7576 224.498 42.6896C226.841 38.6217 232.038 37.2233 236.106 39.5663L286.799 68.7634C290.866 71.1064 292.265 76.3035 289.922 80.3714L260.725 131.064C258.382 135.132 253.185 136.531 249.117 134.188C245.049 131.845 243.65 126.648 245.993 122.58L265.256 89.1359C139.812 117.065 41.8876 81.7502 3.71811 15.0159Z" fill="black" stroke="white" stroke-width="4" stroke-linecap="round"/>
</svg>
