<svg width="319" height="296" viewBox="0 0 319 296" fill="none" xmlns="http://www.w3.org/2000/svg">
<path d="M276.276 3.61891C280.425 1.42309 285.569 3.00663 287.765 7.15585L315.128 58.8617C317.324 63.0109 315.74 68.1546 311.591 70.3504C307.442 72.5462 302.298 70.9627 300.102 66.8134L282.088 32.7743C247.276 132.331 173.967 244.78 13.5977 293.197C9.10363 294.554 4.36057 292.011 3.00377 287.517C1.64696 283.022 4.19022 278.279 8.68428 276.923C161.573 230.764 231.778 124.308 265.566 28.5206L232.522 46.008C228.373 48.2038 223.229 46.6202 221.033 42.471C218.837 38.3218 220.421 33.1781 224.57 30.9823L276.276 3.61891Z" fill="black" stroke="white" stroke-width="4" stroke-linecap="round"/>
</svg>
