<svg width="307" height="165" viewBox="0 0 307 165" fill="none" xmlns="http://www.w3.org/2000/svg">
<path d="M16.811 5.01712C13.4981 1.69107 8.11624 1.68036 4.79018 4.99321C1.46413 8.30605 1.45343 13.6879 4.76628 17.014L6.1833 15.6026L4.76627 17.014C22.8081 35.1277 47.2128 45.887 72.8648 53.7901C89.0859 58.7876 106.53 62.8303 123.59 66.7839L123.628 66.7927C133.329 69.0409 142.906 71.2605 152.102 73.6165C178.03 80.2589 201.363 88.0566 219.289 100.537C231.011 108.699 240.45 118.882 246.709 132.281L219.275 112.742C215.451 110.019 210.144 110.911 207.421 114.734C204.697 118.558 205.589 123.866 209.413 126.589L257.063 160.527C260.886 163.25 266.194 162.358 268.917 158.534L302.855 110.885C305.578 107.061 304.686 101.753 300.862 99.03C297.039 96.3066 291.731 97.1987 289.008 101.022L265.669 133.791C258.365 113.137 245.398 98.0008 229.003 86.5857C208.426 72.2596 182.562 63.8711 156.321 57.1484C146.426 54.6133 136.522 52.3216 126.724 50.0544L126.714 50.0519C109.992 46.1825 93.5839 42.3849 77.8701 37.5436C53.1388 29.9242 31.9161 20.1825 16.811 5.01712Z" fill="black" stroke="white" stroke-width="4" stroke-linecap="round"/>
</svg>
