<svg width="329" height="153" viewBox="0 0 329 153" fill="none" xmlns="http://www.w3.org/2000/svg">
<path d="M30.8157 6.93788C33.0345 2.80093 38.1869 1.24598 42.3239 3.46482L93.8769 31.115C98.0139 33.3338 99.5688 38.4862 97.35 42.6232C95.1311 46.7601 89.9787 48.3151 85.8418 46.0962L53.3587 28.6741C74.4299 83.0123 107.154 111.27 147.68 124.264C193.833 139.063 251.293 134.489 316.16 122.559C320.777 121.71 325.208 124.764 326.057 129.381C326.906 133.998 323.852 138.43 319.235 139.279C254.106 151.256 192.98 156.642 142.489 140.453C95.778 125.475 59.1658 92.3922 36.5298 32.2513L18.1467 66.526C15.9279 70.663 10.7755 72.2179 6.63856 69.9991C2.50161 67.7803 0.946666 62.6279 3.1655 58.4909L30.8157 6.93788Z" fill="black" stroke="white" stroke-width="4" stroke-linecap="round"/>
</svg>
