<svg width="262" height="108" viewBox="0 0 262 108" fill="none" xmlns="http://www.w3.org/2000/svg">
<path d="M2.16749 13.2346C2.00226 8.54304 5.67153 4.60587 10.363 4.44064L68.8268 2.38155C73.5183 2.21632 77.4555 5.88559 77.6207 10.5771C77.7859 15.2686 74.1167 19.2058 69.4252 19.371L32.0916 20.6859C84.4572 65.4624 132.181 86.1011 168.806 88.2957C188.816 89.4948 205.226 85.1939 217.556 76.7111C229.827 68.2685 238.747 55.2146 243.045 37.5713C244.156 33.0102 248.754 30.2134 253.315 31.3245C257.876 32.4355 260.673 37.0337 259.562 41.5947C254.398 62.7935 243.311 79.6267 227.192 90.7165C211.131 101.766 190.77 106.642 167.789 105.265C125.875 102.754 74.3242 79.4622 19.8597 32.5902L21.216 71.0999C21.3813 75.7914 17.712 79.7286 13.0205 79.8938C8.32898 80.0591 4.39181 76.3898 4.22658 71.6983L2.16749 13.2346Z" fill="black" stroke="white" stroke-width="4" stroke-linecap="round"/>
</svg>
