<svg width="286" height="138" viewBox="0 0 286 138" fill="none" xmlns="http://www.w3.org/2000/svg">
<path d="M7.14624 123.289C2.87971 121.331 1.0084 116.285 2.96654 112.019C4.92467 107.752 9.97077 105.881 14.2373 107.839C74.262 135.388 166.407 113.042 249.21 21.3014L212.104 24.965C207.433 25.4263 203.272 22.0131 202.81 17.3414C202.349 12.6696 205.762 8.50855 210.434 8.04728L268.651 2.29912C273.323 1.83786 277.484 5.25107 277.945 9.92278L283.693 68.1397C284.154 72.8114 280.741 76.9725 276.069 77.4338C271.398 77.895 267.237 74.4818 266.775 69.8101L262.983 31.4025C177.208 127.104 77.0178 155.357 7.14624 123.289Z" fill="black" stroke="white" stroke-width="4" stroke-linecap="round"/>
</svg>
