<svg width="20" height="21" viewBox="0 0 20 21" fill="none" xmlns="http://www.w3.org/2000/svg">
<path d="M9.25 14.4453C9.14453 14.4453 9.04297 14.4277 8.94531 14.3926C8.84766 14.3574 8.74609 14.3086 8.64062 14.2461L2.98047 10.9121C2.79688 10.8066 2.66211 10.6895 2.57617 10.5605C2.49414 10.4316 2.45312 10.291 2.45312 10.1387C2.45312 9.98633 2.49414 9.84766 2.57617 9.72266C2.6582 9.59375 2.79297 9.47461 2.98047 9.36523L8.64062 6.03125C8.74609 5.96875 8.84766 5.91992 8.94531 5.88477C9.04297 5.84961 9.14453 5.83203 9.25 5.83203C9.45703 5.83203 9.63477 5.91016 9.7832 6.06641C9.93555 6.21875 10.0117 6.44531 10.0117 6.74609V13.5312C10.0117 13.832 9.93555 14.0586 9.7832 14.2109C9.63477 14.3672 9.45703 14.4453 9.25 14.4453ZM16.7793 14.4453C16.6738 14.4453 16.5723 14.4277 16.4746 14.3926C16.377 14.3574 16.2754 14.3086 16.1699 14.2461L10.5098 10.9121C10.3262 10.8066 10.1914 10.6895 10.1055 10.5605C10.0234 10.4316 9.98242 10.291 9.98242 10.1387C9.98242 9.98633 10.0234 9.84766 10.1055 9.72266C10.1914 9.59375 10.3262 9.47461 10.5098 9.36523L16.1699 6.03125C16.2793 5.96875 16.3809 5.91992 16.4746 5.88477C16.5723 5.84961 16.6738 5.83203 16.7793 5.83203C16.9863 5.83203 17.166 5.91016 17.3184 6.06641C17.4707 6.21875 17.5469 6.44531 17.5469 6.74609V13.5312C17.5469 13.832 17.4707 14.0586 17.3184 14.2109C17.166 14.3672 16.9863 14.4453 16.7793 14.4453Z" fill="black"/>
</svg>
