<svg width="722" height="152" viewBox="0 0 722 152" fill="none" xmlns="http://www.w3.org/2000/svg">
<g clip-path="url(#clip0_1589_351)">
<path d="M627.686 72.8084C628.835 73.1101 630.127 73.9861 631.133 74.733L721.336 151.204H663.882L578.562 72.8084L656.413 0H710.85L631.133 70.8692C630.127 71.8316 628.835 72.478 627.686 72.8084Z" fill="black"/>
<path d="M349.32 0C349.32 0 423.436 0.0429077 447.136 0.0429077C496.403 0.0429077 528.002 32.6624 528.002 75.5805C528.002 123.454 489.221 151.233 448.141 151.233C423.58 151.233 349.32 151.233 349.32 151.233V0ZM387.958 119.404C387.958 119.404 415.967 119.432 445.843 119.404C477.874 119.332 490.226 100.458 490.226 75.5805C490.226 52.915 480.459 31.1399 443.401 31.1111C408.211 31.0826 387.958 31.1111 387.958 31.1111V119.404Z" fill="black"/>
<path d="M174.66 95.8617L119.361 63.9031V0L174.66 95.8617ZM0 95.8617L55.4431 63.9031V0L0 95.8617ZM87.3301 119.26L32.0307 151.233H142.773L87.3301 119.26ZM119.361 0H55.4431L87.3301 31.9586L119.361 0ZM119.361 63.9031L87.3301 119.26L130.995 107.554L119.361 63.9031ZM55.4431 63.9031H119.361L87.3301 31.9586L55.4431 63.9031ZM130.995 107.554L142.773 151.233L174.66 95.8617L130.995 107.554ZM55.4431 63.9031L87.3301 119.26L43.6651 107.554L55.4431 63.9031ZM43.6651 107.554L32.0307 151.233L0 95.8617L43.6651 107.554Z" fill="black"/>
<path d="M340.27 0H162.594V32.1167H231.251V151.233H271.756V32.1167H340.27V0Z" fill="black"/>
<path d="M577.411 151.233V0H536.906V151.233H577.411Z" fill="black"/>
</g>
<defs>
<clipPath id="clip0_1589_351">
<rect width="721.335" height="151.233" fill="white"/>
</clipPath>
</defs>
</svg>
