<svg width="842" height="200" viewBox="0 0 842 200" fill="none" xmlns="http://www.w3.org/2000/svg">
<rect width="841.134" height="200" transform="translate(0.132812)" fill="#214CA1"/>
<path d="M25.1328 29.2402V170.955H166.851V29.2402H25.1328ZM123.245 127.35H68.7275V72.8321H123.245V127.35Z" fill="white"/>
<path d="M210.453 72.8418H264.96V127.348H210.453V72.8418Z" fill="white"/>
<path d="M308.567 29.2402H387.524C416.506 29.2402 429.744 48.5636 429.744 66.224C429.744 78.9447 424.854 87.1498 411.732 94.796C428.282 100.914 437.281 111.95 437.281 128.974C437.281 149.333 422.497 170.939 387.628 170.939H308.531L308.567 29.2402ZM351.691 138.95H380.26C390.448 138.95 395.016 131.67 395.016 125.238C395.016 128.214 396.326 113.497 381.709 113.497H351.691V138.95ZM351.793 85.0325H374.753C385.249 85.0325 389.432 80.1452 389.432 72.9781C389.432 71.326 388.92 62.0691 377.766 62.0691H351.793V85.0325Z" fill="white"/>
<path d="M482.179 29.2402H527.831L579.826 170.765H532.969L526.11 149.564H482.369L476.554 170.655H430.055L482.179 29.2402ZM503.149 71.2572L491.098 118.522H516.864L503.149 71.2572Z" fill="white"/>
<path d="M652.637 71.3315H696.174C696.185 47.3026 678.101 25 635.197 25C588.136 25 573.565 50.9729 573.565 69.9824C573.565 100.633 611.075 108.783 612.239 109.147C617.842 110.912 641.125 117.148 646.932 119.227C651.971 121.025 656.789 125.059 656.789 130.447C656.789 138.707 646.932 142.697 638.727 142.697C633.457 142.697 615.753 140.951 615.753 122.184H570.781C570.781 147.108 587.927 175 636.037 175C689.123 175 700.23 143.336 700.23 126.496C700.23 112.754 692.446 97.5109 674.48 90.2529C663.67 85.8888 645.757 82.0643 636.758 79.4376C632.224 78.1077 617.113 75.0486 617.113 65.8275C617.113 54.0154 636.585 55.5435 633.743 55.5435C642.538 55.5435 652.637 60.4969 652.637 71.3315Z" fill="white"/>
<path d="M707.618 29.207H816.276V66.6093H751.037V91.5414H809.211V127.281H750.833V170.914H707.406L707.618 29.207Z" fill="white"/>
</svg>
