<svg width="20" height="21" viewBox="0 0 20 21" fill="none" xmlns="http://www.w3.org/2000/svg">
<path d="M3.2207 14.7324C3.01367 14.7324 2.83398 14.6543 2.68164 14.498C2.5293 14.3457 2.45312 14.1191 2.45312 13.8184V7.0332C2.45312 6.73242 2.5293 6.50586 2.68164 6.35352C2.83398 6.19727 3.01367 6.11914 3.2207 6.11914C3.32617 6.11914 3.42773 6.13672 3.52539 6.17188C3.62305 6.20703 3.72461 6.25586 3.83008 6.31836L9.49609 9.65234C9.67578 9.76172 9.80664 9.88086 9.88867 10.0098C9.9707 10.1348 10.0117 10.2734 10.0117 10.4258C10.0117 10.5781 9.9707 10.7188 9.88867 10.8477C9.80664 10.9766 9.67578 11.0938 9.49609 11.1992L3.83008 14.5332C3.72461 14.5957 3.62305 14.6445 3.52539 14.6797C3.42773 14.7148 3.32617 14.7324 3.2207 14.7324ZM10.75 14.7324C10.543 14.7324 10.3633 14.6543 10.2109 14.498C10.0586 14.3457 9.98242 14.1191 9.98242 13.8184V7.0332C9.98242 6.73242 10.0586 6.50586 10.2109 6.35352C10.3633 6.19727 10.543 6.11914 10.75 6.11914C10.8555 6.11914 10.957 6.13672 11.0547 6.17188C11.1523 6.20703 11.2539 6.25586 11.3594 6.31836L17.0254 9.65234C17.2051 9.76172 17.3359 9.88086 17.418 10.0098C17.5 10.1348 17.541 10.2734 17.541 10.4258C17.541 10.5781 17.5 10.7188 17.418 10.8477C17.3359 10.9766 17.2051 11.0938 17.0254 11.1992L11.3594 14.5332C11.2539 14.5957 11.1523 14.6445 11.0547 14.6797C10.957 14.7148 10.8555 14.7324 10.75 14.7324Z" fill="black"/>
</svg>
