<svg width="612" height="150" viewBox="0 0 612 150" fill="none" xmlns="http://www.w3.org/2000/svg">
<g clip-path="url(#clip0_1609_359)">
<path fill-rule="evenodd" clip-rule="evenodd" d="M560.423 15.8415C560.423 15.7428 560.416 15.6378 560.416 15.5325V0.00195312H544.962L544.944 0.0255829C544.83 0.0255829 544.711 0.00195312 544.597 0.00195312C535.851 0.00195312 528.773 7.10361 528.773 15.8415C528.773 15.9364 528.773 16.0382 528.773 16.1502V150.002H560.416V16.1502C560.416 16.0382 560.423 15.9364 560.423 15.8415Z" fill="#E31019"/>
<path fill-rule="evenodd" clip-rule="evenodd" d="M611.185 15.8415C611.185 15.7428 611.167 15.6378 611.167 15.5325V0.00195312H595.73L595.706 0.0255829C595.584 0.0255829 595.476 0.00195312 595.358 0.00195312C586.63 0.00195312 579.531 7.10361 579.531 15.8415C579.531 15.9364 579.549 16.0382 579.549 16.1502V150.002H611.167V16.1502C611.167 16.0382 611.185 15.9364 611.185 15.8415Z" fill="#E31019"/>
<path fill-rule="evenodd" clip-rule="evenodd" d="M513.515 111.565L481.608 111.513V133.2H439.439V96.8577H513.261V89.7713H513.324V45.3697C513.324 36.7302 506.406 29.7172 497.799 29.5642L497.789 29.5371H423.63C414.891 29.5371 407.82 36.6148 407.82 45.3527C407.82 45.458 407.82 45.5564 407.82 45.6513V134.177C407.82 142.916 414.925 150.004 423.647 150.004H497.556C506.253 150.004 513.32 142.999 513.376 134.32L513.515 134.177V111.565ZM481.608 45.0099V81.3665H439.439V45.6513C439.439 45.5564 439.46 45.458 439.46 45.3527C439.46 45.2474 439.439 45.166 439.439 45.0711V45.0099H481.608Z" fill="#E31019"/>
<path fill-rule="evenodd" clip-rule="evenodd" d="M272.528 47.0365C272.593 46.4901 272.613 45.9367 272.613 45.3697C272.613 36.7302 265.682 29.7172 257.069 29.5642L257.063 29.5371H182.9C174.155 29.5371 167.081 36.6148 167.081 45.3527C167.081 45.458 167.081 45.5564 167.081 45.6447L167.047 68.2936L198.719 68.2494V45.6513C198.719 45.5564 198.726 45.458 198.726 45.3527C198.726 45.2474 198.719 45.166 198.719 45.0711V45.0099H240.901V81.3665H167.081V134.177C167.081 142.916 174.162 150.004 182.914 150.004H272.528V96.8577H272.556V81.3665H272.528V47.0365ZM198.719 96.8577H240.901V133.2H198.719V96.8577Z" fill="#E31019"/>
<path fill-rule="evenodd" clip-rule="evenodd" d="M151.198 45.166C151.093 36.5265 144.066 29.5371 135.406 29.5371H105.557C98.9921 29.5371 93.35 33.5701 90.9602 39.2796C88.6485 33.7839 83.319 29.8326 77.0355 29.5642L77.0015 29.5371H46.5483C39.8982 29.5371 34.2018 33.6584 31.8662 39.4666V29.5371H0.265625V150.004H31.8662V45.3461H60.4493V52.8889C60.4799 52.8548 60.49 52.8207 60.524 52.7936V150.004H92.1417V53.7172C92.1518 53.7172 92.1653 53.7409 92.1688 53.7544V45.3461H119.774V150.004H151.395V45.3527L151.198 45.166Z" fill="#E31019"/>
<path fill-rule="evenodd" clip-rule="evenodd" d="M354.668 82.8261L398.616 29.5371H379.65L346.002 70.4491L323.205 37.9354L323.063 37.8711C320.386 32.9013 315.151 29.5371 309.129 29.5371C308.714 29.5371 308.31 29.5642 307.896 29.5813L307.801 29.5371H280.539L326.094 94.5983L280.539 150.004H299.237L334.76 106.963L359.378 142.099L359.663 142.29C362.419 146.903 367.467 150.004 373.24 150.004H401.734L354.668 82.8261Z" fill="#E31019"/>
</g>
<defs>
<clipPath id="clip0_1609_359">
<rect width="610.92" height="150" fill="white" transform="translate(0.265625)"/>
</clipPath>
</defs>
</svg>
