<svg width="853" height="150" viewBox="0 0 853 150" fill="none" xmlns="http://www.w3.org/2000/svg">
<g clip-path="url(#clip0_1609_353)">
<path d="M648.508 8.38814V25.0574H664.784C671.892 25.0574 676.564 29.5405 679.223 32.4382C681.354 34.8245 728.229 87.973 729.354 89.3708C730.479 90.7685 730.479 90.7848 730.479 91.6712V118.008C730.476 119.216 730.355 120.42 730.119 121.604C729.786 122.368 729.29 123.051 728.667 123.605C728.043 124.159 727.306 124.57 726.507 124.81C724.969 125.003 723.42 125.1 721.87 125.1L705.577 125.08V141.749H796.973V125.08H779.774C778.234 125.087 776.696 124.989 775.17 124.787C774.372 124.549 773.637 124.139 773.016 123.585C772.394 123.032 771.902 122.349 771.574 121.584C771.335 120.4 771.21 119.196 771.201 117.988V91.6678C771.1 90.8026 771.318 89.9302 771.814 89.2142L822.524 31.3628C827.177 26.181 829.599 25.054 835.701 25.054H852.523V8.38477H777.201V25.0207H788.57C789.179 24.9841 789.786 25.1232 790.318 25.4213C790.851 25.7195 791.286 26.1642 791.574 26.7027C791.861 27.2413 791.987 27.8509 791.938 28.4592C791.889 29.0675 791.666 29.6489 791.296 30.1344C791.058 30.4752 759.761 67.2762 759.369 67.6344C758.978 67.9926 758.724 67.9062 758.434 67.5146C758.144 67.1222 727.223 30.1344 727.223 30.1344C725.041 27.4583 726.747 25.0208 729.304 25.0208H740.383V8.38484L648.508 8.38814Z" fill="#0F0F0F"/>
<path d="M424.344 8.38867V25.0579H438.932C449.466 25.0579 450.185 30.924 450.185 36.0377V114.054C450.185 118.724 450.455 125.133 443.74 125.133H425.739V141.786H502.599V125.133H483.849C476.366 125.133 476.024 121.708 475.939 114.43V47.5932L581.501 141.786H608.347L606.933 35.4051C607.069 27.6323 607.547 25.0413 615.592 25.0413H632.414V8.38867H554.005V25.0413H571.224C579.133 25.0413 580.46 28.0926 580.562 35.4051L581.501 91.0758L489.865 8.38867H424.344Z" fill="#0F0F0F"/>
<path d="M78.2405 0.00195312C61.7235 0.00195312 42.9565 3.1042 27.1043 10.2292C12.3089 16.8428 0.25792 27.4612 0.25792 45.0692C0.235437 54.2904 3.74224 63.1706 10.059 69.8884C14.3374 73.843 21.2419 80.5589 39.2759 84.5135C47.3384 86.218 64.5714 88.9622 81.7361 90.769C98.9009 92.5758 115.537 94.1787 122.355 96.0026C127.776 97.3832 136.894 99.2584 136.894 109.486C136.894 119.713 127.299 122.78 125.628 123.445C123.958 124.11 112.433 129.394 91.7404 129.394C78.03 129.014 64.444 126.677 51.394 122.456C43.6724 119.695 35.5777 116.064 28.0265 106.842C24.9783 102.5 23.2867 97.3513 23.1659 92.0474H4.41596V144.549H25.2466V137.441C25.2432 136.914 25.3806 136.395 25.6444 135.938C25.9082 135.481 26.289 135.103 26.7475 134.843C27.2061 134.582 27.7259 134.449 28.2533 134.456C28.7806 134.463 29.2965 134.611 29.7478 134.884C39.5606 139.154 49.7677 142.453 60.2231 144.735C71.1662 147.019 78.2414 148.674 91.8436 148.674C106.197 148.947 120.501 146.927 134.217 142.691C143.325 140.194 151.871 135.975 159.392 130.263C163.623 127.014 167.042 122.828 169.382 118.034C171.721 113.24 172.917 107.968 172.876 102.634C172.948 92.4993 169.038 82.7414 161.986 75.4614C158.064 71.6566 153.521 68.5501 148.553 66.2761C143.212 63.8627 137.667 61.9286 131.983 60.4966C121.177 57.8545 96.9062 54.5479 85.2984 53.3889C73.128 52.1274 52.008 50.3705 43.5705 47.7626C41.0137 46.9614 35.7969 44.4919 35.7969 38.4408C35.7969 34.1282 38.1835 30.4799 42.888 27.5311C50.371 22.8435 65.4735 19.9271 81.2234 19.9271C96.4687 19.7429 111.589 22.696 125.645 28.603C129.42 30.2488 132.971 32.3688 136.211 34.9118C141.493 39.4235 145.151 45.5418 146.625 52.3302H163.451V6.63371H144.701V11.9338C144.701 13.6383 142.996 15.8891 139.587 14.0312C131.133 9.63345 107.371 0.121263 78.2405 0.00195312Z" fill="#0F0F0F"/>
<path d="M303.889 0.00195312C274.349 0.00195312 242.984 10.228 225.257 26.3359C218.499 32.489 213.104 39.9888 209.42 48.3527C205.735 56.7166 203.842 65.7593 203.864 74.8988C203.758 84.076 205.612 93.1701 209.301 101.574C212.99 109.978 218.43 117.497 225.257 123.631C244.348 140.796 272.986 150.002 303.889 150.002C334.843 150.002 364.093 140.898 382.724 123.631C389.348 117.353 394.633 109.799 398.26 101.424C401.886 93.0484 403.779 84.0254 403.824 74.8988C403.916 65.7815 402.084 56.7473 398.448 48.3859C394.812 40.0244 389.454 32.5235 382.724 26.3725C362.73 8.23609 336.565 0.00195312 303.889 0.00195312ZM303.889 19.501C320.048 19.501 335.61 25.3152 346.093 35.6277C356.235 45.6163 361.534 59.73 361.534 74.8322C361.534 90.6504 356.712 103.469 346.093 114.037C335.474 124.605 320.269 130.263 303.889 130.263C287.628 130.263 272.098 124.486 261.615 114.037C256.601 108.835 252.665 102.693 250.032 95.9653C247.4 89.2373 246.122 82.0554 246.274 74.8322C246.274 59.7981 251.507 45.6333 261.615 35.6277C272.098 25.264 287.73 19.501 303.889 19.501Z" fill="#0F0F0F"/>
</g>
<defs>
<clipPath id="clip0_1609_353">
<rect width="852.27" height="150" fill="white" transform="translate(0.265625)"/>
</clipPath>
</defs>
</svg>
