<svg width="716" height="150" viewBox="0 0 716 150" fill="none" xmlns="http://www.w3.org/2000/svg">
<g clip-path="url(#clip0_1589_351)">
<path d="M622.715 72.2128C623.855 72.512 625.137 73.3809 626.134 74.1217L715.602 149.969H658.616L573.992 72.2128L651.208 -0.00195312H705.202L626.134 70.2894C625.137 71.244 623.855 71.8851 622.715 72.2128Z" fill="black"/>
<path d="M346.617 -0.00195312C346.617 -0.00195312 420.129 0.0406047 443.636 0.0406047C492.501 0.0406047 523.843 32.3941 523.843 74.9623C523.843 122.446 485.378 149.998 444.633 149.998C420.272 149.998 346.617 149.998 346.617 149.998V-0.00195312ZM384.94 118.428C384.94 118.428 412.721 118.457 442.354 118.428C474.123 118.357 486.375 99.6371 486.375 74.9623C486.375 52.4816 476.687 30.8841 439.932 30.8555C405.028 30.8272 384.94 30.8555 384.94 30.8555V118.428Z" fill="black"/>
<path d="M173.378 95.0781L118.529 63.3801V-0.00195312L173.378 95.0781ZM0.140625 95.0781L55.132 63.3801V-0.00195312L0.140625 95.0781ZM86.7592 118.286L31.9103 149.998H141.751L86.7592 118.286ZM118.529 -0.00195312H55.132L86.7592 31.6961L118.529 -0.00195312ZM118.529 63.3801L86.7592 118.286L130.068 106.675L118.529 63.3801ZM55.132 63.3801H118.529L86.7592 31.6961L55.132 63.3801ZM130.068 106.675L141.751 149.998L173.378 95.0781L130.068 106.675ZM55.132 63.3801L86.7592 118.286L43.4499 106.675L55.132 63.3801ZM43.4499 106.675L31.9103 149.998L0.140625 95.0781L43.4499 106.675Z" fill="black"/>
<path d="M337.635 -0.00195312H161.406V31.8529H229.504V149.998H269.679V31.8529H337.635V-0.00195312Z" fill="black"/>
<path d="M572.847 149.998V-0.00195312H532.672V149.998H572.847Z" fill="black"/>
</g>
<defs>
<clipPath id="clip0_1589_351">
<rect width="715.458" height="150" fill="white" transform="translate(0.132812)"/>
</clipPath>
</defs>
</svg>
